<svg xmlns="http://www.w3.org/2000/svg" version="1.1" xmlns:xlink="http://www.w3.org/1999/xlink" xmlns:svgjs="http://svgjs.dev/svgjs" width="1000" height="623" viewBox="0 0 1000 623"><g transform="matrix(1,0,0,1,-0.6060606060606233,0.2522267206477409)"><svg viewBox="0 0 396 247" data-background-color="#ffffff" preserveAspectRatio="xMidYMid meet" height="623" width="1000" xmlns="http://www.w3.org/2000/svg" xmlns:xlink="http://www.w3.org/1999/xlink"><g id="tight-bounds" transform="matrix(1,0,0,1,0.2400000000000091,-0.09999999999999432)"><svg viewBox="0 0 395.52 247.2" height="247.2" width="395.52"><g><svg></svg></g><g><svg viewBox="0 0 395.52 247.2" height="247.2" width="395.52"><mask id="fe468a53-aa75-4307-bd47-5e82eb6e1268"><rect width="395.52" height="247.2" fill="white"></rect><g transform="matrix(1,0,0,1,2.842170943040401e-14,72.94821020707124)" id="clone"><svg viewBox="0 0 395.5199999999999 101.3035795858575" height="101.3035795858575" width="395.5199999999999"><g><svg viewBox="0 0 395.5199999999999 101.3035795858575" height="101.3035795858575" width="395.5199999999999"><g><svg viewBox="0 0 395.5199999999999 101.3035795858575" height="101.3035795858575" width="395.5199999999999"><g transform="matrix(1,0,0,1,0,45.71876636547145)"><svg viewBox="0 0 395.5199999999999 55.584813220386046" height="55.584813220386046" width="395.5199999999999"><g id="SvgjsG1211"><svg viewBox="0 0 395.5199999999999 55.584813220386046" height="55.584813220386046" width="395.5199999999999" id="SvgjsSvg1210"><g><svg viewBox="0 0 395.5199999999999 55.584813220386046" height="55.584813220386046" width="395.5199999999999"><g transform="matrix(1,0,0,1,0,0)"><svg width="395.5199999999999" viewBox="1.25 -38.04999923706055 361.010009765625 51.599998474121094" height="55.584813220386046" data-palette-color="#636365"><path d="M26.3 0L21.15 0 13.75-14.65 13.45-14.65 8.9-14.65 8.9 0 4.25 0 4.25-34.4 12.3-34.4Q24.6-34.4 24.6-24.7L24.6-24.7Q24.6-21.3 22.95-18.95 21.3-16.6 18.1-15.5L18.1-15.5 26.3 0ZM12.65-18.2Q16.25-18.2 18-19.78 19.75-21.35 19.75-24.7L19.75-24.7Q19.75-27.85 17.98-29.35 16.2-30.85 12.2-30.85L12.2-30.85 8.9-30.85 8.9-18.2 12.65-18.2ZM49.75-13.95Q49.75-12.9 49.65-11.6L49.65-11.6 34.35-11.6Q34.55-7 36.2-4.98 37.85-2.95 40.7-2.95L40.7-2.95Q42.5-2.95 43.92-3.5 45.35-4.05 46.9-5.3L46.9-5.3 48.9-2.65Q45.2 0.65 40.5 0.65L40.5 0.65Q35.35 0.65 32.52-2.93 29.7-6.5 29.7-12.95L29.7-12.95Q29.7-19.4 32.4-23.18 35.1-26.95 39.9-26.95L39.9-26.95Q44.65-26.95 47.2-23.58 49.75-20.2 49.75-13.95L49.75-13.95ZM45.4-14.75L45.4-15.3Q45.4-23.55 39.95-23.55L39.95-23.55Q37.45-23.55 36-21.48 34.55-19.4 34.35-14.75L34.35-14.75 45.4-14.75ZM67.75-26.95Q70.9-26.95 72.67-24.88 74.45-22.8 74.45-19.15L74.45-19.15 74.45 0 69.95 0 69.95-18.6Q69.95-21.15 69.1-22.28 68.25-23.4 66.5-23.4L66.5-23.4Q63.2-23.4 60.5-18.7L60.5-18.7 60.5 0 56 0 56-26.3 59.9-26.3 60.25-22.4Q63.3-26.95 67.75-26.95L67.75-26.95ZM93.14-4.05L94.79-1.15Q92.29 0.65 89.24 0.65L89.24 0.65Q86.04 0.65 84.32-1.2 82.59-3.05 82.59-6.4L82.59-6.4 82.59-22.9 78.84-22.9 78.84-26.3 82.59-26.3 82.59-32.35 87.09-32.9 87.09-26.3 92.89-26.3 92.39-22.9 87.09-22.9 87.09-6.45Q87.09-3.05 89.94-3.05L89.94-3.05Q90.79-3.05 91.52-3.3 92.24-3.55 93.14-4.05L93.14-4.05ZM132.34 0L127.54 0 125.24-8.75 113.69-8.75 111.39 0 106.74 0 116.69-34.4 122.39-34.4 132.34 0ZM119.49-30.7L114.64-12.4 124.29-12.4 119.49-30.7ZM148.68-34.4L153.33-34.4 153.33-3.95 165.88-3.95 165.38 0 148.68 0 148.68-34.4ZM188.68-26.3L188.68 0 184.78 0 184.53-3.95Q181.78 0.65 177.18 0.65L177.18 0.65Q174.03 0.65 172.23-1.4 170.43-3.45 170.43-6.95L170.43-6.95 170.43-26.3 174.93-26.3 174.93-7.35Q174.93-5.05 175.81-3.98 176.68-2.9 178.43-2.9L178.43-2.9Q181.78-2.9 184.18-7.3L184.18-7.3 184.18-26.3 188.68-26.3ZM213.38-26.3L206.33-14.1 214.43 0 209.48 0 203.58-11.4 197.73 0 192.93 0 201.03-13.9 193.83-26.3 198.73-26.3 203.68-16.5 208.63-26.3 213.38-26.3ZM236.73-26.3L236.73 0 232.83 0 232.58-3.95Q229.83 0.65 225.23 0.65L225.23 0.65Q222.08 0.65 220.28-1.4 218.48-3.45 218.48-6.95L218.48-6.95 218.48-26.3 222.98-26.3 222.98-7.35Q222.98-5.05 223.85-3.98 224.73-2.9 226.48-2.9L226.48-2.9Q229.83-2.9 232.23-7.3L232.23-7.3 232.23-26.3 236.73-26.3ZM255.62-26.9Q256.92-26.9 257.87-26.6L257.87-26.6 257.12-22.25Q256.17-22.55 255.07-22.55L255.07-22.55Q252.87-22.55 251.5-20.8 250.12-19.05 249.32-15.45L249.32-15.45 249.32 0 244.82 0 244.82-26.3 248.72-26.3 249.07-21.1Q251.02-26.9 255.62-26.9L255.62-26.9ZM280.12-26.3L272.17 0.1Q270.77 4.75 268.22 7.3 265.67 9.85 260.97 10.55L260.97 10.55 260.47 7.2Q262.82 6.7 264.22 5.85 265.62 5 266.47 3.65 267.32 2.3 268.12 0L268.12 0 266.47 0 258.67-26.3 263.32-26.3 269.42-3.15 275.52-26.3 280.12-26.3ZM307.92-35.05Q310.62-35.05 312.62-34.23 314.62-33.4 316.57-31.65L316.57-31.65 314.17-28.85Q312.72-30.1 311.29-30.7 309.87-31.3 308.17-31.3L308.17-31.3Q304.27-31.3 301.97-27.98 299.67-24.65 299.67-17.25L299.67-17.25Q299.67-10.05 301.97-6.63 304.27-3.2 308.17-3.2L308.17-3.2Q310.12-3.2 311.52-3.9 312.92-4.6 314.57-5.95L314.57-5.95 316.92-3.2Q313.17 0.65 307.92 0.65L307.92 0.65Q304.07 0.65 301.09-1.35 298.12-3.35 296.44-7.38 294.77-11.4 294.77-17.25L294.77-17.25Q294.77-23.05 296.49-27.05 298.22-31.05 301.19-33.05 304.17-35.05 307.92-35.05L307.92-35.05ZM338.11-6Q338.11-4.4 338.56-3.63 339.01-2.85 339.96-2.45L339.96-2.45 339.01 0.6Q337.06 0.3 335.96-0.6 334.86-1.5 334.41-3.35L334.41-3.35Q331.86 0.65 327.26 0.65L327.26 0.65Q323.76 0.65 321.71-1.53 319.66-3.7 319.66-7.35L319.66-7.35Q319.66-11.55 322.41-13.75 325.16-15.95 330.26-15.95L330.26-15.95 333.66-15.95 333.66-18.2Q333.66-20.95 332.54-22.18 331.41-23.4 328.86-23.4L328.86-23.4Q326.11-23.4 322.46-22L322.46-22 321.36-25.15Q325.76-26.95 329.56-26.95L329.56-26.95Q338.11-26.95 338.11-18.4L338.11-18.4 338.11-6ZM328.31-2.75Q331.81-2.75 333.66-6.85L333.66-6.85 333.66-13.05 330.76-13.05Q324.26-13.05 324.26-7.6L324.26-7.6Q324.26-5.25 325.31-4 326.36-2.75 328.31-2.75L328.31-2.75ZM357.01-26.9Q358.31-26.9 359.26-26.6L359.26-26.6 358.51-22.25Q357.56-22.55 356.46-22.55L356.46-22.55Q354.26-22.55 352.89-20.8 351.51-19.05 350.71-15.45L350.71-15.45 350.71 0 346.21 0 346.21-26.3 350.11-26.3 350.46-21.1Q352.41-26.9 357.01-26.9L357.01-26.9Z" opacity="1" transform="matrix(1,0,0,1,0,0)" fill="black" class="wordmark-text-0" id="SvgjsPath1209" stroke-width="5" stroke="black" stroke-linejoin="round"></path></svg></g></svg></g></svg></g></svg></g><g transform="matrix(1,0,0,1,180.48228220658956,0)"><svg viewBox="0 0 34.55543558682079 38.40910593528676" height="38.40910593528676" width="34.55543558682079"><g><svg xmlns="http://www.w3.org/2000/svg" xmlns:xlink="http://www.w3.org/1999/xlink" version="1.1" x="0" y="0" viewBox="5.842530727386475 0 115.157470703125 127.99999237060547" enable-background="new 0 0 128 128" xml:space="preserve" height="38.40910593528676" width="34.55543558682079" class="icon-icon-0" data-fill-palette-color="accent" id="SvgjsSvg1208"><path d="M18.084 99.09c-0.243 1.314 0.04 2.644 0.797 3.744 0.933 1.355 2.476 2.166 4.126 2.166 1.01 0 1.986-0.305 2.824-0.881 1.102-0.758 1.841-1.896 2.084-3.21s-0.04-2.644-0.797-3.745c-0.748-1.087-1.892-1.814-3.167-2.063C22.424 92.944 20 88.844 20 84.548c0-8.334 8.108-14.155 12.198-16.562 1.145-0.037 2.247-0.389 3.2-1.045 2.728-1.873 3.419-5.617 1.545-8.345C35.825 56.972 33.973 56 31.992 56c-1.214 0-2.387 0.366-3.393 1.058-1.32 0.907-2.207 2.274-2.498 3.85-0.292 1.577 0.048 3.172 0.956 4.493 0.286 0.417 0.622 0.789 0.994 1.114C22.713 70.209 16 76.46 16 84.548c0 4.218 2.124 8.527 3.98 11.489C18.989 96.791 18.312 97.857 18.084 99.09z" fill="black" stroke-width="5" stroke="black" stroke-linejoin="round"></path><path d="M13.932 76.195c2.035-4.318 5.4-7.883 8.738-10.623-1.616-4.216-0.221-9.142 3.663-11.811C28.064 52.571 30.038 52 31.992 52c3.181 0 6.309 1.514 8.248 4.331 3.127 4.552 1.977 10.779-2.574 13.906-1.292 0.889-2.719 1.432-4.171 1.65C29.913 74.124 24 78.699 24 84.548c0 0.077 0.009 0.154 0.011 0.231C28.128 86.898 32.68 88 37.271 88c5.713 0 11.482-1.697 16.545-5.237 9.597-6.711 14.021-18.205 12.313-29.168l8.474-5.925 1.805-11.322 8.401 2.206c0.171 0.044 0.338 0.065 0.497 0.065 0.9 0 1.578-0.675 1.592-1.689l0.113-8.435 8.615 2.457c0.188 0.054 0.375 0.079 0.557 0.079 0.912 0 1.699-0.643 1.878-1.622l1.528-8.396 8.525 1.835c0.124 0.026 0.263 0.039 0.406 0.039 0.522 0 1.131-0.164 1.51-0.428l2.629-1.839c0.483-0.339 1-1.08 1.15-1.656l4.118-16.715c0.306-1.156-0.399-2.161-1.569-2.248l-14.444 0.011C101.823 0.004 101.727 0 101.628 0c-1.152 0-2.694 0.456-3.585 1.078l-45.51 31.845c-4.631-2.884-9.954-4.387-15.327-4.388-5.708 0-11.473 1.695-16.532 5.233C7.367 43.075 4 61.587 13.151 75.116 13.402 75.486 13.668 75.84 13.932 76.195z" fill="black" stroke-width="5" stroke="black" stroke-linejoin="round"></path><path d="M113 72H67.557c-2.448 5.565-6.35 10.476-11.448 14.041-1.061 0.742-2.16 1.407-3.285 2.012-0.346 0.117-0.703 0.263-1.074 0.448-5.07 2.535-13.191 3.459-13.183 3.45C38.136 91.968 37.706 92 37.271 92c-0.049 0-0.098 0-0.146 0-4.059-0.019-8.014-0.793-11.701-2.22 0.343 0.702 0.715 1.358 1.082 1.946 1.527 0.645 2.899 1.705 3.909 3.172 2.815 4.097 1.779 9.701-2.316 12.516-1.558 1.072-3.334 1.586-5.092 1.586-2.863 0-5.677-1.363-7.422-3.899-1.997-2.903-2.049-6.563-0.454-9.452-1.142-2.168-2.183-4.697-2.728-7.381l-4.686 6.418c-2.595 3.554-2.481 9.283 0.251 12.731l11.343 14.313c2.732 3.448 8.568 6.27 12.969 6.27H113c4.4 0 8-3.6 8-8V80C121 75.6 117.4 72 113 72z" fill="black" stroke-width="5" stroke="black" stroke-linejoin="round"></path></svg></g></svg></g><g></g></svg></g></svg></g></svg></g></mask><g mask="url(#fe468a53-aa75-4307-bd47-5e82eb6e1268)"><g><path xmlns="http://www.w3.org/2000/svg" d="M91.293 194.032h-21.089l-30.302-59.99h-1.229-18.632v59.99h-19.041v-140.864h32.964c33.578 0 50.367 13.24 50.367 39.72v0c0 9.282-2.252 17.13-6.756 23.546-4.504 6.415-11.124 11.124-19.861 14.127v0zM35.397 119.505c9.828 0 17.13-2.157 21.908-6.47 4.777-4.286 7.166-11.002 7.166-20.147v0c0-8.599-2.416-14.946-7.248-19.041-4.859-4.095-12.749-6.142-23.669-6.142v0h-13.513v51.8zM201.445 194.032h-19.655l-9.418-35.83h-47.296l-9.419 35.83h-19.041l40.744-140.864h23.341zM148.826 68.319l-19.86 74.937h39.515zM220.282 53.168h19.041v124.689h51.391l-2.047 16.175h-68.385zM357.666 50.506c7.371 0 13.786 1.119 19.246 3.358 5.46 2.266 10.851 5.787 16.175 10.565v0l-9.828 11.465c-3.958-3.412-7.876-5.938-11.752-7.575-3.904-1.638-8.176-2.457-12.817-2.457v0c-10.647 0-19.11 4.532-25.389 13.595-6.279 9.091-9.418 23.737-9.418 43.938v0c0 19.656 3.139 34.151 9.418 43.488 6.279 9.364 14.742 14.046 25.389 14.046v0c5.323 0 9.896-0.955 13.718-2.867 3.822-1.911 7.985-4.709 12.489-8.394v0l9.623 11.261c-10.237 10.51-22.522 15.765-36.854 15.765v0c-10.51 0-19.819-2.73-27.927-8.19-8.135-5.46-14.482-13.691-19.042-24.692-4.586-10.974-6.879-24.447-6.879-40.417v0c0-15.834 2.361-29.21 7.084-40.13 4.695-10.92 11.111-19.11 19.246-24.569 8.108-5.46 17.28-8.19 27.518-8.19z" fill="#636365" fill-rule="nonzero" stroke="none" stroke-width="1" stroke-linecap="butt" stroke-linejoin="miter" stroke-miterlimit="10" stroke-dasharray="" stroke-dashoffset="0" font-family="none" font-weight="none" font-size="none" text-anchor="none" style="mix-blend-mode: normal" data-fill-palette-color="tertiary"></path></g></g><g transform="matrix(1,0,0,1,2.842170943040401e-14,72.94821020707124)"><svg viewBox="0 0 395.5199999999999 101.3035795858575" height="101.3035795858575" width="395.5199999999999"><g><svg viewBox="0 0 395.5199999999999 101.3035795858575" height="101.3035795858575" width="395.5199999999999"><g><svg viewBox="0 0 395.5199999999999 101.3035795858575" height="101.3035795858575" width="395.5199999999999"><g transform="matrix(1,0,0,1,0,45.71876636547145)"><svg viewBox="0 0 395.5199999999999 55.584813220386046" height="55.584813220386046" width="395.5199999999999"><g id="textblocktransform"><svg viewBox="0 0 395.5199999999999 55.584813220386046" height="55.584813220386046" width="395.5199999999999" id="textblock"><g><svg viewBox="0 0 395.5199999999999 55.584813220386046" height="55.584813220386046" width="395.5199999999999"><g transform="matrix(1,0,0,1,0,0)"><svg width="395.5199999999999" viewBox="1.25 -38.04999923706055 361.010009765625 51.599998474121094" height="55.584813220386046" data-palette-color="#636365"><path d="M26.3 0L21.15 0 13.75-14.65 13.45-14.65 8.9-14.65 8.9 0 4.25 0 4.25-34.4 12.3-34.4Q24.6-34.4 24.6-24.7L24.6-24.7Q24.6-21.3 22.95-18.95 21.3-16.6 18.1-15.5L18.1-15.5 26.3 0ZM12.65-18.2Q16.25-18.2 18-19.78 19.75-21.35 19.75-24.7L19.75-24.7Q19.75-27.85 17.98-29.35 16.2-30.85 12.2-30.85L12.2-30.85 8.9-30.85 8.9-18.2 12.65-18.2ZM49.75-13.95Q49.75-12.9 49.65-11.6L49.65-11.6 34.35-11.6Q34.55-7 36.2-4.98 37.85-2.95 40.7-2.95L40.7-2.95Q42.5-2.95 43.92-3.5 45.35-4.05 46.9-5.3L46.9-5.3 48.9-2.65Q45.2 0.65 40.5 0.65L40.5 0.65Q35.35 0.65 32.52-2.93 29.7-6.5 29.7-12.95L29.7-12.95Q29.7-19.4 32.4-23.18 35.1-26.95 39.9-26.95L39.9-26.95Q44.65-26.95 47.2-23.58 49.75-20.2 49.75-13.95L49.75-13.95ZM45.4-14.75L45.4-15.3Q45.4-23.55 39.95-23.55L39.95-23.55Q37.45-23.55 36-21.48 34.55-19.4 34.35-14.75L34.35-14.75 45.4-14.75ZM67.75-26.95Q70.9-26.95 72.67-24.88 74.45-22.8 74.45-19.15L74.45-19.15 74.45 0 69.95 0 69.95-18.6Q69.95-21.15 69.1-22.28 68.25-23.4 66.5-23.4L66.5-23.4Q63.2-23.4 60.5-18.7L60.5-18.7 60.5 0 56 0 56-26.3 59.9-26.3 60.25-22.4Q63.3-26.95 67.75-26.95L67.75-26.95ZM93.14-4.05L94.79-1.15Q92.29 0.65 89.24 0.65L89.24 0.65Q86.04 0.65 84.32-1.2 82.59-3.05 82.59-6.4L82.59-6.4 82.59-22.9 78.84-22.9 78.84-26.3 82.59-26.3 82.59-32.35 87.09-32.9 87.09-26.3 92.89-26.3 92.39-22.9 87.09-22.9 87.09-6.45Q87.09-3.05 89.94-3.05L89.94-3.05Q90.79-3.05 91.52-3.3 92.24-3.55 93.14-4.05L93.14-4.05ZM132.34 0L127.54 0 125.24-8.75 113.69-8.75 111.39 0 106.74 0 116.69-34.4 122.39-34.4 132.34 0ZM119.49-30.7L114.64-12.4 124.29-12.4 119.49-30.7ZM148.68-34.4L153.33-34.4 153.33-3.95 165.88-3.95 165.38 0 148.68 0 148.68-34.4ZM188.68-26.3L188.68 0 184.78 0 184.53-3.95Q181.78 0.65 177.18 0.65L177.18 0.65Q174.03 0.65 172.23-1.4 170.43-3.45 170.43-6.95L170.43-6.95 170.43-26.3 174.93-26.3 174.93-7.35Q174.93-5.05 175.81-3.98 176.68-2.9 178.43-2.9L178.43-2.9Q181.78-2.9 184.18-7.3L184.18-7.3 184.18-26.3 188.68-26.3ZM213.38-26.3L206.33-14.1 214.43 0 209.48 0 203.58-11.4 197.73 0 192.93 0 201.03-13.9 193.83-26.3 198.73-26.3 203.68-16.5 208.63-26.3 213.38-26.3ZM236.73-26.3L236.73 0 232.83 0 232.58-3.95Q229.83 0.65 225.23 0.65L225.23 0.65Q222.08 0.65 220.28-1.4 218.48-3.45 218.48-6.95L218.48-6.95 218.48-26.3 222.98-26.3 222.98-7.35Q222.98-5.05 223.85-3.98 224.73-2.9 226.48-2.9L226.48-2.9Q229.83-2.9 232.23-7.3L232.23-7.3 232.23-26.3 236.73-26.3ZM255.62-26.9Q256.92-26.9 257.87-26.6L257.87-26.6 257.12-22.25Q256.17-22.55 255.07-22.55L255.07-22.55Q252.87-22.55 251.5-20.8 250.12-19.05 249.32-15.45L249.32-15.45 249.32 0 244.82 0 244.82-26.3 248.72-26.3 249.07-21.1Q251.02-26.9 255.62-26.9L255.62-26.9ZM280.12-26.3L272.17 0.1Q270.77 4.75 268.22 7.3 265.67 9.85 260.97 10.55L260.97 10.55 260.47 7.2Q262.82 6.7 264.22 5.85 265.62 5 266.47 3.65 267.32 2.3 268.12 0L268.12 0 266.47 0 258.67-26.3 263.32-26.3 269.42-3.15 275.52-26.3 280.12-26.3ZM307.92-35.05Q310.62-35.05 312.62-34.23 314.62-33.4 316.57-31.65L316.57-31.65 314.17-28.85Q312.72-30.1 311.29-30.7 309.87-31.3 308.17-31.3L308.17-31.3Q304.27-31.3 301.97-27.98 299.67-24.65 299.67-17.25L299.67-17.25Q299.67-10.05 301.97-6.63 304.27-3.2 308.17-3.2L308.17-3.2Q310.12-3.2 311.52-3.9 312.92-4.6 314.57-5.95L314.57-5.95 316.92-3.2Q313.17 0.65 307.92 0.65L307.92 0.65Q304.07 0.65 301.09-1.35 298.12-3.35 296.44-7.38 294.77-11.4 294.77-17.25L294.77-17.25Q294.77-23.05 296.49-27.05 298.22-31.05 301.19-33.05 304.17-35.05 307.92-35.05L307.92-35.05ZM338.11-6Q338.11-4.4 338.56-3.63 339.01-2.85 339.96-2.45L339.96-2.45 339.01 0.6Q337.06 0.3 335.96-0.6 334.86-1.5 334.41-3.35L334.41-3.35Q331.86 0.65 327.26 0.65L327.26 0.65Q323.76 0.65 321.71-1.53 319.66-3.7 319.66-7.35L319.66-7.35Q319.66-11.55 322.41-13.75 325.16-15.95 330.26-15.95L330.26-15.95 333.66-15.95 333.66-18.2Q333.66-20.95 332.54-22.18 331.41-23.4 328.86-23.4L328.86-23.4Q326.11-23.4 322.46-22L322.46-22 321.36-25.15Q325.76-26.95 329.56-26.95L329.56-26.95Q338.11-26.95 338.11-18.4L338.11-18.4 338.11-6ZM328.31-2.75Q331.81-2.75 333.66-6.85L333.66-6.85 333.66-13.05 330.76-13.05Q324.26-13.05 324.26-7.6L324.26-7.6Q324.26-5.25 325.31-4 326.36-2.75 328.31-2.75L328.31-2.75ZM357.01-26.9Q358.31-26.9 359.26-26.6L359.26-26.6 358.51-22.25Q357.56-22.55 356.46-22.55L356.46-22.55Q354.26-22.55 352.89-20.8 351.51-19.05 350.71-15.45L350.71-15.45 350.71 0 346.21 0 346.21-26.3 350.11-26.3 350.46-21.1Q352.41-26.9 357.01-26.9L357.01-26.9Z" opacity="1" transform="matrix(1,0,0,1,0,0)" fill="#636365" class="wordmark-text-0" data-fill-palette-color="primary" id="text-0"></path></svg></g></svg></g></svg></g></svg></g><g transform="matrix(1,0,0,1,180.48228220658956,0)"><svg viewBox="0 0 34.55543558682079 38.40910593528676" height="38.40910593528676" width="34.55543558682079"><g><svg xmlns="http://www.w3.org/2000/svg" xmlns:xlink="http://www.w3.org/1999/xlink" version="1.1" x="0" y="0" viewBox="5.842530727386475 0 115.157470703125 127.99999237060547" enable-background="new 0 0 128 128" xml:space="preserve" height="38.40910593528676" width="34.55543558682079" class="icon-icon-0" data-fill-palette-color="accent" id="icon-0"></svg></g></svg></g><g></g></svg></g></svg></g></svg></g></svg></g><defs></defs><mask id="11aa5e99-ec57-463d-82ce-72c6f3897adc"><g id="SvgjsG1223"><svg viewBox="0 0 395.52 247.2" height="247.2" width="395.52"><g><svg></svg></g><g><svg viewBox="0 0 395.52 247.2" height="247.2" width="395.52"><mask id="SvgjsMask1222"><g transform="matrix(1,0,0,1,2.842170943040401e-14,72.94821020707124)" id="SvgjsG1221"><svg viewBox="0 0 395.5199999999999 101.3035795858575" height="101.3035795858575" width="395.5199999999999"><g><svg viewBox="0 0 395.5199999999999 101.3035795858575" height="101.3035795858575" width="395.5199999999999"><g><svg viewBox="0 0 395.5199999999999 101.3035795858575" height="101.3035795858575" width="395.5199999999999"><g transform="matrix(1,0,0,1,0,45.71876636547145)"><svg viewBox="0 0 395.5199999999999 55.584813220386046" height="55.584813220386046" width="395.5199999999999"><g id="SvgjsG1220"><svg viewBox="0 0 395.5199999999999 55.584813220386046" height="55.584813220386046" width="395.5199999999999" id="SvgjsSvg1219"><g><svg viewBox="0 0 395.5199999999999 55.584813220386046" height="55.584813220386046" width="395.5199999999999"><g transform="matrix(1,0,0,1,0,0)"><svg width="395.5199999999999" viewBox="1.25 -38.04999923706055 361.010009765625 51.599998474121094" height="55.584813220386046" data-palette-color="#636365"></svg></g></svg></g></svg></g></svg></g><g transform="matrix(1,0,0,1,180.48228220658956,0)"><svg viewBox="0 0 34.55543558682079 38.40910593528676" height="38.40910593528676" width="34.55543558682079"><g><svg xmlns="http://www.w3.org/2000/svg" xmlns:xlink="http://www.w3.org/1999/xlink" version="1.1" x="0" y="0" viewBox="5.842530727386475 0 115.157470703125 127.99999237060547" enable-background="new 0 0 128 128" xml:space="preserve" height="38.40910593528676" width="34.55543558682079" class="icon-icon-0" data-fill-palette-color="accent" id="SvgjsSvg1217"></svg></g></svg></g><g></g></svg></g></svg></g></svg></g></mask><g mask="url(#fe468a53-aa75-4307-bd47-5e82eb6e1268)"><g></g></g><g transform="matrix(1,0,0,1,2.842170943040401e-14,72.94821020707124)"><svg viewBox="0 0 395.5199999999999 101.3035795858575" height="101.3035795858575" width="395.5199999999999"><g><svg viewBox="0 0 395.5199999999999 101.3035795858575" height="101.3035795858575" width="395.5199999999999"><g><svg viewBox="0 0 395.5199999999999 101.3035795858575" height="101.3035795858575" width="395.5199999999999"><g transform="matrix(1,0,0,1,0,45.71876636547145)"><svg viewBox="0 0 395.5199999999999 55.584813220386046" height="55.584813220386046" width="395.5199999999999"><g id="SvgjsG1216"><svg viewBox="0 0 395.5199999999999 55.584813220386046" height="55.584813220386046" width="395.5199999999999" id="SvgjsSvg1215"><g><svg viewBox="0 0 395.5199999999999 55.584813220386046" height="55.584813220386046" width="395.5199999999999"><g transform="matrix(1,0,0,1,0,0)"><svg width="395.5199999999999" viewBox="1.25 -38.04999923706055 361.010009765625 51.599998474121094" height="55.584813220386046" data-palette-color="#636365"></svg></g></svg></g></svg></g></svg></g><g transform="matrix(1,0,0,1,180.48228220658956,0)"><svg viewBox="0 0 34.55543558682079 38.40910593528676" height="38.40910593528676" width="34.55543558682079"><g><svg xmlns="http://www.w3.org/2000/svg" xmlns:xlink="http://www.w3.org/1999/xlink" version="1.1" x="0" y="0" viewBox="5.842530727386475 0 115.157470703125 127.99999237060547" enable-background="new 0 0 128 128" xml:space="preserve" height="38.40910593528676" width="34.55543558682079" class="icon-icon-0" data-fill-palette-color="accent" id="SvgjsSvg1213"><path d="M18.084 99.09c-0.243 1.314 0.04 2.644 0.797 3.744 0.933 1.355 2.476 2.166 4.126 2.166 1.01 0 1.986-0.305 2.824-0.881 1.102-0.758 1.841-1.896 2.084-3.21s-0.04-2.644-0.797-3.745c-0.748-1.087-1.892-1.814-3.167-2.063C22.424 92.944 20 88.844 20 84.548c0-8.334 8.108-14.155 12.198-16.562 1.145-0.037 2.247-0.389 3.2-1.045 2.728-1.873 3.419-5.617 1.545-8.345C35.825 56.972 33.973 56 31.992 56c-1.214 0-2.387 0.366-3.393 1.058-1.32 0.907-2.207 2.274-2.498 3.85-0.292 1.577 0.048 3.172 0.956 4.493 0.286 0.417 0.622 0.789 0.994 1.114C22.713 70.209 16 76.46 16 84.548c0 4.218 2.124 8.527 3.98 11.489C18.989 96.791 18.312 97.857 18.084 99.09z" fill="white"></path><path d="M13.932 76.195c2.035-4.318 5.4-7.883 8.738-10.623-1.616-4.216-0.221-9.142 3.663-11.811C28.064 52.571 30.038 52 31.992 52c3.181 0 6.309 1.514 8.248 4.331 3.127 4.552 1.977 10.779-2.574 13.906-1.292 0.889-2.719 1.432-4.171 1.65C29.913 74.124 24 78.699 24 84.548c0 0.077 0.009 0.154 0.011 0.231C28.128 86.898 32.68 88 37.271 88c5.713 0 11.482-1.697 16.545-5.237 9.597-6.711 14.021-18.205 12.313-29.168l8.474-5.925 1.805-11.322 8.401 2.206c0.171 0.044 0.338 0.065 0.497 0.065 0.9 0 1.578-0.675 1.592-1.689l0.113-8.435 8.615 2.457c0.188 0.054 0.375 0.079 0.557 0.079 0.912 0 1.699-0.643 1.878-1.622l1.528-8.396 8.525 1.835c0.124 0.026 0.263 0.039 0.406 0.039 0.522 0 1.131-0.164 1.51-0.428l2.629-1.839c0.483-0.339 1-1.08 1.15-1.656l4.118-16.715c0.306-1.156-0.399-2.161-1.569-2.248l-14.444 0.011C101.823 0.004 101.727 0 101.628 0c-1.152 0-2.694 0.456-3.585 1.078l-45.51 31.845c-4.631-2.884-9.954-4.387-15.327-4.388-5.708 0-11.473 1.695-16.532 5.233C7.367 43.075 4 61.587 13.151 75.116 13.402 75.486 13.668 75.84 13.932 76.195z" fill="white"></path><path d="M113 72H67.557c-2.448 5.565-6.35 10.476-11.448 14.041-1.061 0.742-2.16 1.407-3.285 2.012-0.346 0.117-0.703 0.263-1.074 0.448-5.07 2.535-13.191 3.459-13.183 3.45C38.136 91.968 37.706 92 37.271 92c-0.049 0-0.098 0-0.146 0-4.059-0.019-8.014-0.793-11.701-2.22 0.343 0.702 0.715 1.358 1.082 1.946 1.527 0.645 2.899 1.705 3.909 3.172 2.815 4.097 1.779 9.701-2.316 12.516-1.558 1.072-3.334 1.586-5.092 1.586-2.863 0-5.677-1.363-7.422-3.899-1.997-2.903-2.049-6.563-0.454-9.452-1.142-2.168-2.183-4.697-2.728-7.381l-4.686 6.418c-2.595 3.554-2.481 9.283 0.251 12.731l11.343 14.313c2.732 3.448 8.568 6.27 12.969 6.27H113c4.4 0 8-3.6 8-8V80C121 75.6 117.4 72 113 72z" fill="white"></path></svg></g></svg></g><g></g></svg></g></svg></g></svg></g></svg></g><defs><mask></mask></defs></svg></g></mask><linearGradient x1="0.054" x2="0.941" y1="0.5" y2="0.5" id="75d8576c-a14d-4303-9845-7cc1c7d37a0a"><stop stop-color="#0f3054" offset="0"></stop><stop stop-color="#3b8dcb" offset="0.498"></stop><stop stop-color="#0f3054" offset="1"></stop></linearGradient><rect width="395.5199890136719" height="247.1999969482422" fill="url(#75d8576c-a14d-4303-9845-7cc1c7d37a0a)" mask="url(#11aa5e99-ec57-463d-82ce-72c6f3897adc)" data-fill-palette-color="accent"></rect></svg><rect width="395.52" height="247.2" fill="none" stroke="none" visibility="hidden"></rect></g></svg></g></svg>
